<mxfile host="Electron" agent="Mozilla/5.0 (Windows NT 10.0; Win64; x64) AppleWebKit/537.36 (KHTML, like Gecko) draw.io/26.2.2 Chrome/134.0.6998.178 Electron/35.1.2 Safari/537.36" version="26.2.2">
  <diagram name="Page-1" id="tGjq8ORsDaUdfqmDCrao">
    <mxGraphModel dx="788" dy="482" grid="1" gridSize="10" guides="1" tooltips="1" connect="1" arrows="1" fold="1" page="1" pageScale="1" pageWidth="850" pageHeight="1100" math="0" shadow="0">
      <root>
        <mxCell id="0" />
        <mxCell id="1" parent="0" />
        <mxCell id="YoMQdb2DrbTZbhleH7W7-1" value="AWS Account Projeto Simples By Elvis Aparecido" style="points=[[0,0],[0.25,0],[0.5,0],[0.75,0],[1,0],[1,0.25],[1,0.5],[1,0.75],[1,1],[0.75,1],[0.5,1],[0.25,1],[0,1],[0,0.75],[0,0.5],[0,0.25]];outlineConnect=0;html=1;whiteSpace=wrap;fontSize=12;fontStyle=0;container=1;pointerEvents=0;collapsible=0;recursiveResize=0;shape=mxgraph.aws4.group;grIcon=mxgraph.aws4.group_account;strokeColor=#d79b00;fillColor=#E1EBF0;verticalAlign=top;align=left;spacingLeft=30;dashed=0;labelBackgroundColor=#FFFFFF;" vertex="1" parent="1">
          <mxGeometry x="100" y="40" width="680" height="530" as="geometry" />
        </mxCell>
        <mxCell id="YoMQdb2DrbTZbhleH7W7-2" value="Region SÃ£o Paulo" style="rounded=1;arcSize=17;dashed=1;fillColor=none;gradientColor=none;dashPattern=1 1;strokeWidth=2;verticalAlign=top;fontColor=#C00870;fontSize=13;" vertex="1" parent="YoMQdb2DrbTZbhleH7W7-1">
          <mxGeometry x="140" y="40" width="520" height="380" as="geometry" />
        </mxCell>
        <mxCell id="YoMQdb2DrbTZbhleH7W7-22" value="" style="sketch=0;points=[[0,0,0],[0.25,0,0],[0.5,0,0],[0.75,0,0],[1,0,0],[0,1,0],[0.25,1,0],[0.5,1,0],[0.75,1,0],[1,1,0],[0,0.25,0],[0,0.5,0],[0,0.75,0],[1,0.25,0],[1,0.5,0],[1,0.75,0]];outlineConnect=0;fontColor=#232F3E;fillColor=#8C4FFF;strokeColor=#ffffff;dashed=0;verticalLabelPosition=bottom;verticalAlign=top;align=center;html=1;fontSize=12;fontStyle=0;aspect=fixed;shape=mxgraph.aws4.resourceIcon;resIcon=mxgraph.aws4.route_53;" vertex="1" parent="YoMQdb2DrbTZbhleH7W7-1">
          <mxGeometry x="60" y="190" width="60" height="60" as="geometry" />
        </mxCell>
        <mxCell id="YoMQdb2DrbTZbhleH7W7-3" value="Public subnet" style="points=[[0,0],[0.25,0],[0.5,0],[0.75,0],[1,0],[1,0.25],[1,0.5],[1,0.75],[1,1],[0.75,1],[0.5,1],[0.25,1],[0,1],[0,0.75],[0,0.5],[0,0.25]];outlineConnect=0;gradientColor=none;html=1;whiteSpace=wrap;fontSize=12;fontStyle=0;container=1;pointerEvents=0;collapsible=0;recursiveResize=0;shape=mxgraph.aws4.group;grIcon=mxgraph.aws4.group_security_group;grStroke=0;strokeColor=#7AA116;fillColor=#D7F6C4;verticalAlign=top;align=left;spacingLeft=30;fontColor=#248814;dashed=0;" vertex="1" parent="1">
          <mxGeometry x="300" y="120" width="200" height="290" as="geometry" />
        </mxCell>
        <mxCell id="YoMQdb2DrbTZbhleH7W7-4" value="Private subnet" style="points=[[0,0],[0.25,0],[0.5,0],[0.75,0],[1,0],[1,0.25],[1,0.5],[1,0.75],[1,1],[0.75,1],[0.5,1],[0.25,1],[0,1],[0,0.75],[0,0.5],[0,0.25]];outlineConnect=0;gradientColor=none;html=1;whiteSpace=wrap;fontSize=12;fontStyle=0;container=1;pointerEvents=0;collapsible=0;recursiveResize=0;shape=mxgraph.aws4.group;grIcon=mxgraph.aws4.group_security_group;grStroke=0;strokeColor=#00A4A6;fillColor=#B0EBF7;verticalAlign=top;align=left;spacingLeft=30;fontColor=#147EBA;dashed=0;" vertex="1" parent="1">
          <mxGeometry x="520" y="120" width="200" height="290" as="geometry" />
        </mxCell>
        <mxCell id="YoMQdb2DrbTZbhleH7W7-7" value="EC2" style="sketch=0;points=[[0,0,0],[0.25,0,0],[0.5,0,0],[0.75,0,0],[1,0,0],[0,1,0],[0.25,1,0],[0.5,1,0],[0.75,1,0],[1,1,0],[0,0.25,0],[0,0.5,0],[0,0.75,0],[1,0.25,0],[1,0.5,0],[1,0.75,0]];outlineConnect=0;fontColor=#232F3E;fillColor=#ED7100;strokeColor=#ffffff;dashed=0;verticalLabelPosition=bottom;verticalAlign=top;align=center;html=1;fontSize=12;fontStyle=0;aspect=fixed;shape=mxgraph.aws4.resourceIcon;resIcon=mxgraph.aws4.ec2;" vertex="1" parent="YoMQdb2DrbTZbhleH7W7-4">
          <mxGeometry x="-150" y="101" width="59" height="59" as="geometry" />
        </mxCell>
        <mxCell id="YoMQdb2DrbTZbhleH7W7-10" value="" style="image;aspect=fixed;perimeter=ellipsePerimeter;html=1;align=center;shadow=0;dashed=0;spacingTop=3;image=img/lib/active_directory/internet_globe.svg;" vertex="1" parent="1">
          <mxGeometry x="20" y="242.5" width="35" height="35" as="geometry" />
        </mxCell>
        <mxCell id="YoMQdb2DrbTZbhleH7W7-18" value="" style="image;aspect=fixed;perimeter=ellipsePerimeter;html=1;align=center;shadow=0;dashed=0;spacingTop=3;image=img/lib/active_directory/users.svg;" vertex="1" parent="1">
          <mxGeometry x="21" y="130" width="33" height="50" as="geometry" />
        </mxCell>
        <mxCell id="YoMQdb2DrbTZbhleH7W7-20" value="" style="endArrow=classic;html=1;rounded=0;exitX=0.5;exitY=1;exitDx=0;exitDy=0;fontColor=#DAFF25;" edge="1" parent="1" source="YoMQdb2DrbTZbhleH7W7-18">
          <mxGeometry width="50" height="50" relative="1" as="geometry">
            <mxPoint x="360" y="280" as="sourcePoint" />
            <mxPoint x="38" y="240" as="targetPoint" />
          </mxGeometry>
        </mxCell>
        <mxCell id="YoMQdb2DrbTZbhleH7W7-21" value="" style="endArrow=classic;html=1;rounded=0;exitX=1;exitY=0.5;exitDx=0;exitDy=0;" edge="1" parent="1" source="YoMQdb2DrbTZbhleH7W7-10">
          <mxGeometry width="50" height="50" relative="1" as="geometry">
            <mxPoint x="360" y="280" as="sourcePoint" />
            <mxPoint x="150" y="260" as="targetPoint" />
          </mxGeometry>
        </mxCell>
      </root>
    </mxGraphModel>
  </diagram>
</mxfile>
